<svg width="41" height="39" viewBox="0 0 41 39" fill="none" xmlns="http://www.w3.org/2000/svg">
<g clip-path="url(#clip0_282_380)">
<path fill-rule="evenodd" clip-rule="evenodd" d="M26.3757 27.6827C24.8826 29.3115 23.1613 30.7204 21.2641 31.8664C21.1464 31.9534 21.0047 32.0025 20.8579 32.0072C20.7111 32.012 20.5664 31.972 20.4433 31.8928C17.7422 30.2044 15.3438 28.0836 13.3464 25.6172C10.7371 22.4035 9.10555 18.84 8.54834 15.4085C7.98112 11.9276 8.51164 8.57859 10.2633 5.85651C10.9775 4.75589 11.8717 3.78025 12.9093 2.96946C15.3817 1.00956 18.2011 -0.0198829 21.0205 -8.59655e-05C23.8816 0.0476601 26.6202 1.15568 28.6947 3.10474C29.4933 3.82847 30.1842 4.66053 30.7467 5.57606C32.6285 8.64458 33.0356 12.5578 32.2081 16.5238C31.2913 20.6871 29.2742 24.5354 26.3624 27.6761V27.6761L26.3757 27.6827ZM8.44824 24.8088C8.61064 24.8003 8.77308 24.8246 8.92567 24.8802C9.07826 24.9358 9.2178 25.0216 9.33579 25.1323C9.45378 25.2429 9.54774 25.3762 9.61195 25.524C9.67616 25.6717 9.70928 25.8309 9.70928 25.9917C9.70928 26.1525 9.67616 26.3116 9.61195 26.4594C9.54774 26.6071 9.45378 26.7404 9.33579 26.8511C9.2178 26.9617 9.07826 27.0475 8.92567 27.1031C8.77308 27.1587 8.61064 27.183 8.44824 27.1745H6.19938L3.23983 36.6243H37.6768L34.4636 27.1646H32.6051C32.4427 27.1731 32.2803 27.1488 32.1277 27.0932C31.9751 27.0376 31.8356 26.9518 31.7176 26.8412C31.5996 26.7305 31.5056 26.5972 31.4414 26.4495C31.3772 26.3017 31.3441 26.1426 31.3441 25.9818C31.3441 25.821 31.3772 25.6618 31.4414 25.5141C31.5056 25.3663 31.5996 25.233 31.7176 25.1224C31.8356 25.0117 31.9751 24.9259 32.1277 24.8703C32.2803 24.8147 32.4427 24.7904 32.6051 24.7989H36.1753L41 38.9867H0L4.44434 24.7989L8.44824 24.8088ZM20.48 5.58925L13.3764 12.2542L15.0447 13.1253L20.4333 7.77352L25.9019 13.1253L27.5702 12.2542L20.48 5.58925ZM15.6453 14.0755L20.4867 9.28799L25.3147 14.0755V18.774H21.7879V15.4745H19.142V18.774H15.6453V14.0755Z" fill="#B3A39B"/>
</g>
<defs>
<clipPath id="clip0_282_380">
<rect width="41" height="39" fill="white"/>
</clipPath>
</defs>
</svg>
