<svg width="43" height="43" viewBox="0 0 43 43" fill="none" xmlns="http://www.w3.org/2000/svg">
<g filter="url(#filter0_d_380_387)">
<path d="M21.5 0C11.84 0 4 7.84 4 17.5C4 27.16 11.84 35 21.5 35H30.25V31.5H21.5C13.905 31.5 7.5 25.095 7.5 17.5C7.5 9.905 13.905 3.5 21.5 3.5C29.095 3.5 35.5 9.905 35.5 17.5V20.0025C35.5 21.385 34.2575 22.75 32.875 22.75C31.4925 22.75 30.25 21.385 30.25 20.0025V17.5C30.25 12.67 26.33 8.75 21.5 8.75C16.67 8.75 12.75 12.67 12.75 17.5C12.75 22.33 16.67 26.25 21.5 26.25C23.915 26.25 26.12 25.27 27.695 23.6775C28.8325 25.235 30.7925 26.25 32.875 26.25C36.3225 26.25 39 23.45 39 20.0025V17.5C39 7.84 31.16 0 21.5 0ZM21.5 22.75C18.595 22.75 16.25 20.405 16.25 17.5C16.25 14.595 18.595 12.25 21.5 12.25C24.405 12.25 26.75 14.595 26.75 17.5C26.75 20.405 24.405 22.75 21.5 22.75Z" fill="#E95913"/>
</g>
<defs>
<filter id="filter0_d_380_387" x="0" y="0" width="43" height="43" filterUnits="userSpaceOnUse" color-interpolation-filters="sRGB">
<feFlood flood-opacity="0" result="BackgroundImageFix"/>
<feColorMatrix in="SourceAlpha" type="matrix" values="0 0 0 0 0 0 0 0 0 0 0 0 0 0 0 0 0 0 127 0" result="hardAlpha"/>
<feOffset dy="4"/>
<feGaussianBlur stdDeviation="2"/>
<feComposite in2="hardAlpha" operator="out"/>
<feColorMatrix type="matrix" values="0 0 0 0 0 0 0 0 0 0 0 0 0 0 0 0 0 0 0.25 0"/>
<feBlend mode="normal" in2="BackgroundImageFix" result="effect1_dropShadow_380_387"/>
<feBlend mode="normal" in="SourceGraphic" in2="effect1_dropShadow_380_387" result="shape"/>
</filter>
</defs>
</svg>
