<svg width="25" height="25" viewBox="0 0 25 25" fill="none" xmlns="http://www.w3.org/2000/svg">
<g clip-path="url(#clip0_124_1313)">
<path d="M12.2322 2.13135C6.71219 2.13135 2.24219 6.61135 2.24219 12.1313C2.24219 17.6513 6.71219 22.1313 12.2322 22.1313C17.7622 22.1313 22.2422 17.6513 22.2422 12.1313C22.2422 6.61135 17.7622 2.13135 12.2322 2.13135ZM12.2422 20.1313C7.82219 20.1313 4.24219 16.5513 4.24219 12.1313C4.24219 7.71135 7.82219 4.13135 12.2422 4.13135C16.6622 4.13135 20.2422 7.71135 20.2422 12.1313C20.2422 16.5513 16.6622 20.1313 12.2422 20.1313ZM12.7422 7.13135H11.2422V13.1313L16.4922 16.2813L17.2422 15.0513L12.7422 12.3813V7.13135Z" fill="#6D737A"/>
</g>
<defs>
<clipPath id="clip0_124_1313">
<rect width="24" height="24" fill="white" transform="translate(0.242188 0.131348)"/>
</clipPath>
</defs>
</svg>
