<svg width="37" height="35" viewBox="0 0 37 35" fill="none" xmlns="http://www.w3.org/2000/svg">
<path d="M32.8889 0H4.11111C1.83972 0 0 1.74028 0 3.88889V31.1111C0 33.2597 1.83972 35 4.11111 35H32.8889C35.1603 35 37 33.2597 37 31.1111V3.88889C37 1.74028 35.1603 0 32.8889 0ZM9.73922 27.2222C8.3065 27.2222 7.14511 26.1236 7.14511 24.7683V16.0631C7.14717 14.7097 8.30856 13.6111 9.73922 13.6111C11.1719 13.6111 12.3333 14.7097 12.3333 16.065V24.7703C12.3333 26.1236 11.1719 27.2222 9.73922 27.2222ZM9.64878 11.1164C8.06394 11.1164 7.00533 10.1169 7.00533 8.78306C7.00533 7.44917 8.06189 6.44972 9.8235 6.44972C11.4083 6.44972 12.4669 7.44917 12.4669 8.78306C12.4669 10.1169 11.4104 11.1164 9.64878 11.1164ZM28.3235 27.2222C26.9381 27.2222 25.8137 26.1586 25.8137 24.8481V19.7828C25.8137 17.7256 24.4755 17.5 23.9739 17.5C23.4724 17.5 21.7992 17.5681 21.7992 19.7828V24.8481C21.7992 26.1586 20.6748 27.2222 19.2893 27.2222H19.1228C17.7374 27.2222 16.613 26.1586 16.613 24.8481V16.065C16.613 14.7097 17.7744 13.6111 19.2071 13.6111C20.6398 13.6111 21.8012 14.7097 21.8012 16.065C21.8012 16.065 22.3809 13.6111 26.3193 13.6111C28.8251 13.6111 30.8333 15.5108 30.8333 19.7828V24.8481C30.8333 26.1586 29.7089 27.2222 28.3235 27.2222Z" fill="#E95913"/>
</svg>
