<svg width="24" height="25" viewBox="0 0 24 25" fill="none" xmlns="http://www.w3.org/2000/svg">
<g clip-path="url(#clip0_124_1300)">
<g clip-path="url(#clip1_124_1300)">
<g clip-path="url(#clip2_124_1300)">
<path d="M11.8027 4.0127C8.41648 4.0127 5.67773 6.75145 5.67773 10.1377C5.67773 14.7314 11.8027 21.5127 11.8027 21.5127C11.8027 21.5127 17.9277 14.7314 17.9277 10.1377C17.9277 6.75145 15.189 4.0127 11.8027 4.0127ZM7.42773 10.1377C7.42773 7.7227 9.38773 5.7627 11.8027 5.7627C14.2177 5.7627 16.1777 7.7227 16.1777 10.1377C16.1777 12.6577 13.6577 16.4289 11.8027 18.7827C9.98273 16.4464 7.42773 12.6314 7.42773 10.1377Z" fill="#6D737A"/>
<path d="M11.8027 12.3252C13.0109 12.3252 13.9902 11.3458 13.9902 10.1377C13.9902 8.92957 13.0109 7.9502 11.8027 7.9502C10.5946 7.9502 9.61523 8.92957 9.61523 10.1377C9.61523 11.3458 10.5946 12.3252 11.8027 12.3252Z" fill="#6D737A"/>
</g>
</g>
</g>
<defs>
<clipPath id="clip0_124_1300">
<rect width="24" height="24" fill="white" transform="translate(0 0.131348)"/>
</clipPath>
<clipPath id="clip1_124_1300">
<rect width="27" height="27" fill="white" transform="translate(2.30273 3.2627)"/>
</clipPath>
<clipPath id="clip2_124_1300">
<rect width="21" height="21" fill="white" transform="translate(1.30273 2.2627)"/>
</clipPath>
</defs>
</svg>
