<svg width="36" height="35" viewBox="0 0 36 35" fill="none" xmlns="http://www.w3.org/2000/svg">
<path d="M32.4727 23.2906L27.3825 22.7392C26.16 22.6061 24.9576 23.0054 24.0958 23.823L20.4084 27.3213C14.737 24.5835 10.0877 20.1915 7.20184 14.7919L10.9093 11.2745C11.771 10.457 12.1919 9.31624 12.0516 8.15646L11.4704 3.36525C11.2299 1.44497 9.52652 0 7.48241 0H4.01543C1.75087 0 -0.132921 1.7872 0.00736177 3.93564C1.0695 20.1725 14.7571 33.1392 31.8515 34.1469C34.116 34.2799 35.9998 32.4928 35.9998 30.3443V27.0551C36.0198 25.1348 34.4968 23.5187 32.4727 23.2906Z" fill="#18E244"/>
</svg>
