<svg width="40" height="40" viewBox="0 0 40 40" fill="none" xmlns="http://www.w3.org/2000/svg">
<path d="M29.9938 26.4619C29.569 26.0354 28.9918 25.7956 28.3899 25.7956H27.7499C27.5746 25.7956 27.4061 25.7277 27.2799 25.606C27.0215 25.357 27.0035 24.9507 27.2256 24.6689C29.773 21.4378 31.0506 17.1664 30.2922 12.6406C29.1894 6.12172 23.746 0.915987 17.1764 0.118713C7.25153 -1.10065 -1.10129 7.24728 0.118783 17.1663C0.916524 23.7321 6.12531 29.1723 12.648 30.2744C17.1766 31.0325 21.4507 29.7555 24.6837 27.2094C24.9656 26.9874 25.3717 27.0055 25.6208 27.2636C25.7426 27.3899 25.8108 27.5586 25.8108 27.7342V28.3748C25.8108 28.9755 26.0495 29.5516 26.4744 29.9763L35.7825 39.2789C36.7445 40.2404 38.3165 40.2404 39.2785 39.2789C40.2405 38.3175 40.2405 36.7464 39.2785 35.785L29.9938 26.4619ZM15.2524 25.7956C9.41013 25.7956 4.69407 21.0823 4.69407 15.2435C4.69407 9.40461 9.41013 4.69131 15.2524 4.69131C21.0947 4.69131 25.8108 9.40461 25.8108 15.2435C25.8108 21.0823 21.0947 25.7956 15.2524 25.7956Z" fill="#BE9E8C"/>
</svg>
