<svg width="32" height="32" viewBox="0 0 32 32" fill="none" xmlns="http://www.w3.org/2000/svg">
<path d="M6.43556 13.8489C8.99556 18.88 13.12 22.9867 18.1511 25.5644L22.0622 21.6533C22.5422 21.1733 23.2533 21.0133 23.8756 21.2267C25.8667 21.8844 28.0178 22.24 30.2222 22.24C31.2 22.24 32 23.04 32 24.0178V30.2222C32 31.2 31.2 32 30.2222 32C13.5289 32 0 18.4711 0 1.77778C0 0.8 0.8 0 1.77778 0H8C8.97778 0 9.77778 0.8 9.77778 1.77778C9.77778 4 10.1333 6.13333 10.7911 8.12444C10.9867 8.74667 10.8444 9.44 10.3467 9.93778L6.43556 13.8489Z" fill="#B3A39B"/>
</svg>
